<svg id="Layer_1" data-name="Layer 1" xmlns="http://www.w3.org/2000/svg" viewBox="0 0 487.43 139.04"><defs><style>.cls-1{fill:#000}</style></defs><title>uno</title><path class="cls-1" d="M62.79 199.18v-72.46h21.39v73c0 26.2 15 43.59 37.43 43.59s37.39-17.4 37.39-43.6v-73h21.39v72.46c0 38.24-23.52 63.91-58.83 63.91s-58.77-25.66-58.77-63.9zm302.53-8.55v72.46h-21.39v-73c0-26.2-15-43.59-37.43-43.59s-37.44 17.38-37.44 43.59v73h-21.38v-72.46c0-38.24 23.52-63.91 58.83-63.91s58.81 25.67 58.81 63.91zm67.25 5.08c0-42.25 23.52-70.32 58.82-70.32s58.83 28.07 58.83 70.32c0 41.18-23.52 68.72-58.83 68.72s-58.82-27.54-58.82-68.72zm96.25 0c0-30.21-15-50.53-37.44-50.53S454 165.5 454 195.71c0 29.41 15 48.93 37.43 48.93s37.39-19.52 37.39-48.93z" transform="translate(-62.79 -125.38)"/></svg>