<svg data-name="Layer 1" xmlns="http://www.w3.org/2000/svg" viewBox="0 0 487.43 139.04"><path d="M0 73.8V1.34h21.39v73c0 26.2 15 43.59 37.43 43.59s37.39-17.4 37.39-43.6v-73h21.39v72.46c0 38.24-23.52 63.91-58.83 63.91S0 112.04 0 73.8zm302.53-8.55v72.46h-21.39v-73c0-26.2-15-43.59-37.43-43.59s-37.44 17.38-37.44 43.59v73h-21.38V65.25c0-38.24 23.52-63.91 58.83-63.91s58.81 25.67 58.81 63.91zm67.25 5.08C369.78 28.08 393.3.01 428.6.01s58.83 28.07 58.83 70.32c0 41.18-23.52 68.72-58.83 68.72s-58.82-27.54-58.82-68.72zm96.25 0c0-30.21-15-50.53-37.44-50.53s-37.38 20.32-37.38 50.53c0 29.41 15 48.93 37.43 48.93s37.39-19.52 37.39-48.93z"/></svg>